<?xml version="1.0" standalone="no"?>
<svg xmlns="http://www.w3.org/2000/svg" width="100" height="100" xmlns:xlink="http://www.w3.org/1999/xlink" viewBox="0 0 100 100"><defs><clipPath id="clip-path-background-color-26"><rect x="0" y="0" width="100" height="100"/></clipPath><clipPath id="clip-path-dot-color-26"><rect x="32" y="0" width="4" height="4" transform="rotate(0,34,2)"/><rect x="40" y="0" width="4" height="4" transform="rotate(0,42,2)"/><rect x="44" y="0" width="4" height="4" transform="rotate(0,46,2)"/><rect x="48" y="0" width="4" height="4" transform="rotate(0,50,2)"/><rect x="52" y="0" width="4" height="4" transform="rotate(0,54,2)"/><rect x="56" y="0" width="4" height="4" transform="rotate(0,58,2)"/><rect x="60" y="0" width="4" height="4" transform="rotate(0,62,2)"/><rect x="32" y="4" width="4" height="4" transform="rotate(0,34,6)"/><rect x="60" y="4" width="4" height="4" transform="rotate(0,62,6)"/><rect x="48" y="8" width="4" height="4" transform="rotate(0,50,10)"/><rect x="56" y="8" width="4" height="4" transform="rotate(0,58,10)"/><rect x="64" y="8" width="4" height="4" transform="rotate(0,66,10)"/><rect x="56" y="12" width="4" height="4" transform="rotate(0,58,14)"/><rect x="60" y="12" width="4" height="4" transform="rotate(0,62,14)"/><rect x="64" y="12" width="4" height="4" transform="rotate(0,66,14)"/><rect x="36" y="16" width="4" height="4" transform="rotate(0,38,18)"/><rect x="40" y="16" width="4" height="4" transform="rotate(0,42,18)"/><rect x="44" y="16" width="4" height="4" transform="rotate(0,46,18)"/><rect x="52" y="16" width="4" height="4" transform="rotate(0,54,18)"/><rect x="56" y="16" width="4" height="4" transform="rotate(0,58,18)"/><rect x="60" y="16" width="4" height="4" transform="rotate(0,62,18)"/><rect x="40" y="20" width="4" height="4" transform="rotate(0,42,22)"/><rect x="44" y="20" width="4" height="4" transform="rotate(0,46,22)"/><rect x="52" y="20" width="4" height="4" transform="rotate(0,54,22)"/><rect x="56" y="20" width="4" height="4" transform="rotate(0,58,22)"/><rect x="32" y="24" width="4" height="4" transform="rotate(0,34,26)"/><rect x="40" y="24" width="4" height="4" transform="rotate(0,42,26)"/><rect x="48" y="24" width="4" height="4" transform="rotate(0,50,26)"/><rect x="56" y="24" width="4" height="4" transform="rotate(0,58,26)"/><rect x="64" y="24" width="4" height="4" transform="rotate(0,66,26)"/><rect x="44" y="28" width="4" height="4" transform="rotate(0,46,30)"/><rect x="52" y="28" width="4" height="4" transform="rotate(0,54,30)"/><rect x="64" y="28" width="4" height="4" transform="rotate(0,66,30)"/><rect x="4" y="32" width="4" height="4" transform="rotate(0,6,34)"/><rect x="24" y="32" width="4" height="4" transform="rotate(0,26,34)"/><rect x="28" y="32" width="4" height="4" transform="rotate(0,30,34)"/><rect x="32" y="32" width="4" height="4" transform="rotate(0,34,34)"/><rect x="44" y="32" width="4" height="4" transform="rotate(0,46,34)"/><rect x="48" y="32" width="4" height="4" transform="rotate(0,50,34)"/><rect x="56" y="32" width="4" height="4" transform="rotate(0,58,34)"/><rect x="60" y="32" width="4" height="4" transform="rotate(0,62,34)"/><rect x="64" y="32" width="4" height="4" transform="rotate(0,66,34)"/><rect x="68" y="32" width="4" height="4" transform="rotate(0,70,34)"/><rect x="92" y="32" width="4" height="4" transform="rotate(0,94,34)"/><rect x="96" y="32" width="4" height="4" transform="rotate(0,98,34)"/><rect x="4" y="36" width="4" height="4" transform="rotate(0,6,38)"/><rect x="8" y="36" width="4" height="4" transform="rotate(0,10,38)"/><rect x="16" y="36" width="4" height="4" transform="rotate(0,18,38)"/><rect x="28" y="36" width="4" height="4" transform="rotate(0,30,38)"/><rect x="36" y="36" width="4" height="4" transform="rotate(0,38,38)"/><rect x="40" y="36" width="4" height="4" transform="rotate(0,42,38)"/><rect x="44" y="36" width="4" height="4" transform="rotate(0,46,38)"/><rect x="48" y="36" width="4" height="4" transform="rotate(0,50,38)"/><rect x="56" y="36" width="4" height="4" transform="rotate(0,58,38)"/><rect x="60" y="36" width="4" height="4" transform="rotate(0,62,38)"/><rect x="68" y="36" width="4" height="4" transform="rotate(0,70,38)"/><rect x="76" y="36" width="4" height="4" transform="rotate(0,78,38)"/><rect x="80" y="36" width="4" height="4" transform="rotate(0,82,38)"/><rect x="84" y="36" width="4" height="4" transform="rotate(0,86,38)"/><rect x="88" y="36" width="4" height="4" transform="rotate(0,90,38)"/><rect x="92" y="36" width="4" height="4" transform="rotate(0,94,38)"/><rect x="0" y="40" width="4" height="4" transform="rotate(0,2,42)"/><rect x="12" y="40" width="4" height="4" transform="rotate(0,14,42)"/><rect x="20" y="40" width="4" height="4" transform="rotate(0,22,42)"/><rect x="24" y="40" width="4" height="4" transform="rotate(0,26,42)"/><rect x="28" y="40" width="4" height="4" transform="rotate(0,30,42)"/><rect x="48" y="40" width="4" height="4" transform="rotate(0,50,42)"/><rect x="60" y="40" width="4" height="4" transform="rotate(0,62,42)"/><rect x="64" y="40" width="4" height="4" transform="rotate(0,66,42)"/><rect x="72" y="40" width="4" height="4" transform="rotate(0,74,42)"/><rect x="76" y="40" width="4" height="4" transform="rotate(0,78,42)"/><rect x="84" y="40" width="4" height="4" transform="rotate(0,86,42)"/><rect x="92" y="40" width="4" height="4" transform="rotate(0,94,42)"/><rect x="96" y="40" width="4" height="4" transform="rotate(0,98,42)"/><rect x="0" y="44" width="4" height="4" transform="rotate(0,2,46)"/><rect x="4" y="44" width="4" height="4" transform="rotate(0,6,46)"/><rect x="12" y="44" width="4" height="4" transform="rotate(0,14,46)"/><rect x="16" y="44" width="4" height="4" transform="rotate(0,18,46)"/><rect x="28" y="44" width="4" height="4" transform="rotate(0,30,46)"/><rect x="32" y="44" width="4" height="4" transform="rotate(0,34,46)"/><rect x="36" y="44" width="4" height="4" transform="rotate(0,38,46)"/><rect x="56" y="44" width="4" height="4" transform="rotate(0,58,46)"/><rect x="60" y="44" width="4" height="4" transform="rotate(0,62,46)"/><rect x="84" y="44" width="4" height="4" transform="rotate(0,86,46)"/><rect x="96" y="44" width="4" height="4" transform="rotate(0,98,46)"/><rect x="0" y="48" width="4" height="4" transform="rotate(0,2,50)"/><rect x="24" y="48" width="4" height="4" transform="rotate(0,26,50)"/><rect x="28" y="48" width="4" height="4" transform="rotate(0,30,50)"/><rect x="36" y="48" width="4" height="4" transform="rotate(0,38,50)"/><rect x="52" y="48" width="4" height="4" transform="rotate(0,54,50)"/><rect x="56" y="48" width="4" height="4" transform="rotate(0,58,50)"/><rect x="60" y="48" width="4" height="4" transform="rotate(0,62,50)"/><rect x="72" y="48" width="4" height="4" transform="rotate(0,74,50)"/><rect x="96" y="48" width="4" height="4" transform="rotate(0,98,50)"/><rect x="0" y="52" width="4" height="4" transform="rotate(0,2,54)"/><rect x="8" y="52" width="4" height="4" transform="rotate(0,10,54)"/><rect x="32" y="52" width="4" height="4" transform="rotate(0,34,54)"/><rect x="48" y="52" width="4" height="4" transform="rotate(0,50,54)"/><rect x="56" y="52" width="4" height="4" transform="rotate(0,58,54)"/><rect x="60" y="52" width="4" height="4" transform="rotate(0,62,54)"/><rect x="64" y="52" width="4" height="4" transform="rotate(0,66,54)"/><rect x="68" y="52" width="4" height="4" transform="rotate(0,70,54)"/><rect x="76" y="52" width="4" height="4" transform="rotate(0,78,54)"/><rect x="92" y="52" width="4" height="4" transform="rotate(0,94,54)"/><rect x="0" y="56" width="4" height="4" transform="rotate(0,2,58)"/><rect x="8" y="56" width="4" height="4" transform="rotate(0,10,58)"/><rect x="12" y="56" width="4" height="4" transform="rotate(0,14,58)"/><rect x="16" y="56" width="4" height="4" transform="rotate(0,18,58)"/><rect x="24" y="56" width="4" height="4" transform="rotate(0,26,58)"/><rect x="36" y="56" width="4" height="4" transform="rotate(0,38,58)"/><rect x="44" y="56" width="4" height="4" transform="rotate(0,46,58)"/><rect x="48" y="56" width="4" height="4" transform="rotate(0,50,58)"/><rect x="60" y="56" width="4" height="4" transform="rotate(0,62,58)"/><rect x="64" y="56" width="4" height="4" transform="rotate(0,66,58)"/><rect x="72" y="56" width="4" height="4" transform="rotate(0,74,58)"/><rect x="76" y="56" width="4" height="4" transform="rotate(0,78,58)"/><rect x="80" y="56" width="4" height="4" transform="rotate(0,82,58)"/><rect x="84" y="56" width="4" height="4" transform="rotate(0,86,58)"/><rect x="92" y="56" width="4" height="4" transform="rotate(0,94,58)"/><rect x="96" y="56" width="4" height="4" transform="rotate(0,98,58)"/><rect x="0" y="60" width="4" height="4" transform="rotate(0,2,62)"/><rect x="12" y="60" width="4" height="4" transform="rotate(0,14,62)"/><rect x="16" y="60" width="4" height="4" transform="rotate(0,18,62)"/><rect x="20" y="60" width="4" height="4" transform="rotate(0,22,62)"/><rect x="28" y="60" width="4" height="4" transform="rotate(0,30,62)"/><rect x="32" y="60" width="4" height="4" transform="rotate(0,34,62)"/><rect x="44" y="60" width="4" height="4" transform="rotate(0,46,62)"/><rect x="48" y="60" width="4" height="4" transform="rotate(0,50,62)"/><rect x="68" y="60" width="4" height="4" transform="rotate(0,70,62)"/><rect x="76" y="60" width="4" height="4" transform="rotate(0,78,62)"/><rect x="84" y="60" width="4" height="4" transform="rotate(0,86,62)"/><rect x="88" y="60" width="4" height="4" transform="rotate(0,90,62)"/><rect x="96" y="60" width="4" height="4" transform="rotate(0,98,62)"/><rect x="0" y="64" width="4" height="4" transform="rotate(0,2,66)"/><rect x="12" y="64" width="4" height="4" transform="rotate(0,14,66)"/><rect x="16" y="64" width="4" height="4" transform="rotate(0,18,66)"/><rect x="24" y="64" width="4" height="4" transform="rotate(0,26,66)"/><rect x="32" y="64" width="4" height="4" transform="rotate(0,34,66)"/><rect x="44" y="64" width="4" height="4" transform="rotate(0,46,66)"/><rect x="48" y="64" width="4" height="4" transform="rotate(0,50,66)"/><rect x="56" y="64" width="4" height="4" transform="rotate(0,58,66)"/><rect x="60" y="64" width="4" height="4" transform="rotate(0,62,66)"/><rect x="64" y="64" width="4" height="4" transform="rotate(0,66,66)"/><rect x="68" y="64" width="4" height="4" transform="rotate(0,70,66)"/><rect x="72" y="64" width="4" height="4" transform="rotate(0,74,66)"/><rect x="76" y="64" width="4" height="4" transform="rotate(0,78,66)"/><rect x="80" y="64" width="4" height="4" transform="rotate(0,82,66)"/><rect x="88" y="64" width="4" height="4" transform="rotate(0,90,66)"/><rect x="32" y="68" width="4" height="4" transform="rotate(0,34,70)"/><rect x="36" y="68" width="4" height="4" transform="rotate(0,38,70)"/><rect x="44" y="68" width="4" height="4" transform="rotate(0,46,70)"/><rect x="56" y="68" width="4" height="4" transform="rotate(0,58,70)"/><rect x="64" y="68" width="4" height="4" transform="rotate(0,66,70)"/><rect x="80" y="68" width="4" height="4" transform="rotate(0,82,70)"/><rect x="32" y="72" width="4" height="4" transform="rotate(0,34,74)"/><rect x="36" y="72" width="4" height="4" transform="rotate(0,38,74)"/><rect x="40" y="72" width="4" height="4" transform="rotate(0,42,74)"/><rect x="48" y="72" width="4" height="4" transform="rotate(0,50,74)"/><rect x="56" y="72" width="4" height="4" transform="rotate(0,58,74)"/><rect x="64" y="72" width="4" height="4" transform="rotate(0,66,74)"/><rect x="72" y="72" width="4" height="4" transform="rotate(0,74,74)"/><rect x="80" y="72" width="4" height="4" transform="rotate(0,82,74)"/><rect x="96" y="72" width="4" height="4" transform="rotate(0,98,74)"/><rect x="40" y="76" width="4" height="4" transform="rotate(0,42,78)"/><rect x="44" y="76" width="4" height="4" transform="rotate(0,46,78)"/><rect x="52" y="76" width="4" height="4" transform="rotate(0,54,78)"/><rect x="56" y="76" width="4" height="4" transform="rotate(0,58,78)"/><rect x="60" y="76" width="4" height="4" transform="rotate(0,62,78)"/><rect x="64" y="76" width="4" height="4" transform="rotate(0,66,78)"/><rect x="80" y="76" width="4" height="4" transform="rotate(0,82,78)"/><rect x="96" y="76" width="4" height="4" transform="rotate(0,98,78)"/><rect x="36" y="80" width="4" height="4" transform="rotate(0,38,82)"/><rect x="40" y="80" width="4" height="4" transform="rotate(0,42,82)"/><rect x="48" y="80" width="4" height="4" transform="rotate(0,50,82)"/><rect x="60" y="80" width="4" height="4" transform="rotate(0,62,82)"/><rect x="64" y="80" width="4" height="4" transform="rotate(0,66,82)"/><rect x="68" y="80" width="4" height="4" transform="rotate(0,70,82)"/><rect x="72" y="80" width="4" height="4" transform="rotate(0,74,82)"/><rect x="76" y="80" width="4" height="4" transform="rotate(0,78,82)"/><rect x="80" y="80" width="4" height="4" transform="rotate(0,82,82)"/><rect x="88" y="80" width="4" height="4" transform="rotate(0,90,82)"/><rect x="96" y="80" width="4" height="4" transform="rotate(0,98,82)"/><rect x="36" y="84" width="4" height="4" transform="rotate(0,38,86)"/><rect x="44" y="84" width="4" height="4" transform="rotate(0,46,86)"/><rect x="48" y="84" width="4" height="4" transform="rotate(0,50,86)"/><rect x="52" y="84" width="4" height="4" transform="rotate(0,54,86)"/><rect x="56" y="84" width="4" height="4" transform="rotate(0,58,86)"/><rect x="72" y="84" width="4" height="4" transform="rotate(0,74,86)"/><rect x="92" y="84" width="4" height="4" transform="rotate(0,94,86)"/><rect x="96" y="84" width="4" height="4" transform="rotate(0,98,86)"/><rect x="36" y="88" width="4" height="4" transform="rotate(0,38,90)"/><rect x="40" y="88" width="4" height="4" transform="rotate(0,42,90)"/><rect x="52" y="88" width="4" height="4" transform="rotate(0,54,90)"/><rect x="56" y="88" width="4" height="4" transform="rotate(0,58,90)"/><rect x="60" y="88" width="4" height="4" transform="rotate(0,62,90)"/><rect x="84" y="88" width="4" height="4" transform="rotate(0,86,90)"/><rect x="88" y="88" width="4" height="4" transform="rotate(0,90,90)"/><rect x="96" y="88" width="4" height="4" transform="rotate(0,98,90)"/><rect x="32" y="92" width="4" height="4" transform="rotate(0,34,94)"/><rect x="44" y="92" width="4" height="4" transform="rotate(0,46,94)"/><rect x="48" y="92" width="4" height="4" transform="rotate(0,50,94)"/><rect x="52" y="92" width="4" height="4" transform="rotate(0,54,94)"/><rect x="64" y="92" width="4" height="4" transform="rotate(0,66,94)"/><rect x="68" y="92" width="4" height="4" transform="rotate(0,70,94)"/><rect x="76" y="92" width="4" height="4" transform="rotate(0,78,94)"/><rect x="80" y="92" width="4" height="4" transform="rotate(0,82,94)"/><rect x="96" y="92" width="4" height="4" transform="rotate(0,98,94)"/><rect x="36" y="96" width="4" height="4" transform="rotate(0,38,98)"/><rect x="40" y="96" width="4" height="4" transform="rotate(0,42,98)"/><rect x="48" y="96" width="4" height="4" transform="rotate(0,50,98)"/><rect x="52" y="96" width="4" height="4" transform="rotate(0,54,98)"/><rect x="56" y="96" width="4" height="4" transform="rotate(0,58,98)"/><rect x="64" y="96" width="4" height="4" transform="rotate(0,66,98)"/><rect x="68" y="96" width="4" height="4" transform="rotate(0,70,98)"/><rect x="84" y="96" width="4" height="4" transform="rotate(0,86,98)"/><rect x="96" y="96" width="4" height="4" transform="rotate(0,98,98)"/></clipPath><clipPath id="clip-path-corners-square-color-0-0-26"><path clip-rule="evenodd" d="M 0 0v 28h 28v -28zM 4 4h 20v 20h -20z" transform="rotate(0,14,14)"/></clipPath><clipPath id="clip-path-corners-dot-color-0-0-26"><rect x="8" y="8" width="12" height="12" transform="rotate(0,14,14)"/></clipPath><clipPath id="clip-path-corners-square-color-1-0-26"><path clip-rule="evenodd" d="M 72 0v 28h 28v -28zM 76 4h 20v 20h -20z" transform="rotate(90,86,14)"/></clipPath><clipPath id="clip-path-corners-dot-color-1-0-26"><rect x="80" y="8" width="12" height="12" transform="rotate(90,86,14)"/></clipPath><clipPath id="clip-path-corners-square-color-0-1-26"><path clip-rule="evenodd" d="M 0 72v 28h 28v -28zM 4 76h 20v 20h -20z" transform="rotate(-90,14,86)"/></clipPath><clipPath id="clip-path-corners-dot-color-0-1-26"><rect x="8" y="80" width="12" height="12" transform="rotate(-90,14,86)"/></clipPath></defs><rect x="0" y="0" height="100" width="100" clip-path="url('#clip-path-background-color-26')" fill="#ffffff"/><rect x="0" y="0" height="100" width="100" clip-path="url('#clip-path-dot-color-26')" fill="#000000"/><rect x="0" y="0" height="28" width="28" clip-path="url('#clip-path-corners-square-color-0-0-26')" fill="#000000"/><rect x="8" y="8" height="12" width="12" clip-path="url('#clip-path-corners-dot-color-0-0-26')" fill="#000000"/><rect x="72" y="0" height="28" width="28" clip-path="url('#clip-path-corners-square-color-1-0-26')" fill="#000000"/><rect x="80" y="8" height="12" width="12" clip-path="url('#clip-path-corners-dot-color-1-0-26')" fill="#000000"/><rect x="0" y="72" height="28" width="28" clip-path="url('#clip-path-corners-square-color-0-1-26')" fill="#000000"/><rect x="8" y="80" height="12" width="12" clip-path="url('#clip-path-corners-dot-color-0-1-26')" fill="#000000"/></svg>